<svg width="96" height="96" viewBox="0 0 96 96" fill="none" xmlns="http://www.w3.org/2000/svg">
<g id="Detailed pictogram">
<path id="Vector" d="M68 4H28C14.7452 4 4 14.7452 4 28V68C4 81.2548 14.7452 92 28 92H68C81.2548 92 92 81.2548 92 68V28C92 14.7452 81.2548 4 68 4Z" fill="#F4FBF4"/>
<path id="Vector_2" d="M48 15C39.2479 15 30.8542 18.4768 24.6655 24.6655C18.4768 30.8542 15 39.2479 15 48C15 56.7521 18.4768 65.1458 24.6655 71.3345C30.8542 77.5232 39.2479 81 48 81H58C64 81 67 74 63 70C58 65 63 60 71 60H75C88 60 94 44 85 33C77 22 64 15 48 15Z" fill="#F6DDBD" stroke="#2A1712" stroke-width="3.8" stroke-linecap="round" stroke-linejoin="round"/>
<path id="Vector_3" d="M35 44C37.7614 44 40 41.7614 40 39C40 36.2386 37.7614 34 35 34C32.2386 34 30 36.2386 30 39C30 41.7614 32.2386 44 35 44Z" fill="#E26D5A"/>
<path id="Vector_4" d="M48 36C50.7614 36 53 33.7614 53 31C53 28.2386 50.7614 26 48 26C45.2386 26 43 28.2386 43 31C43 33.7614 45.2386 36 48 36Z" fill="#4EA3D8"/>
<path id="Vector_5" d="M63 44C65.7614 44 68 41.7614 68 39C68 36.2386 65.7614 34 63 34C60.2386 34 58 36.2386 58 39C58 41.7614 60.2386 44 63 44Z" fill="#7FB77E"/>
<path id="Vector_6" d="M39 62C41.7614 62 44 59.7614 44 57C44 54.2386 41.7614 52 39 52C36.2386 52 34 54.2386 34 57C34 59.7614 36.2386 62 39 62Z" fill="#B8A0D8"/>
<path id="Vector_7" d="M69 70L81 82" stroke="#2A1712" stroke-width="3.8" stroke-linecap="round" stroke-linejoin="round"/>
</g>
</svg>
