<svg width="96" height="96" viewBox="0 0 96 96" fill="none" xmlns="http://www.w3.org/2000/svg">
<g id="Detailed pictogram">
<path id="Vector" d="M68 4H28C14.7452 4 4 14.7452 4 28V68C4 81.2548 14.7452 92 28 92H68C81.2548 92 92 81.2548 92 68V28C92 14.7452 81.2548 4 68 4Z" fill="#F8F2FA"/>
<path id="Vector_2" d="M24 16H72L82 33L69 41L64 33V80H32V33L27 41L14 33L24 16Z" fill="#B8A0D8" stroke="#2A1712" stroke-width="3.8" stroke-linecap="round" stroke-linejoin="round"/>
<path id="Vector_3" d="M48 16V80M38 32H38.2M38 48H38.2M38 64H38.2M58 32H58.2M58 48H58.2M58 64H58.2" stroke="#2A1712" stroke-width="3.8" stroke-linecap="round" stroke-linejoin="round"/>
</g>
</svg>
