<svg width="96" height="96" viewBox="0 0 96 96" fill="none" xmlns="http://www.w3.org/2000/svg">
<g id="Detailed pictogram">
<path id="Vector" d="M68 4H28C14.7452 4 4 14.7452 4 28V68C4 81.2548 14.7452 92 28 92H68C81.2548 92 92 81.2548 92 68V28C92 14.7452 81.2548 4 68 4Z" fill="#FFF2EA"/>
<path id="Vector_2" d="M60 30H36C29.3726 30 24 35.3726 24 42V68C24 74.6274 29.3726 80 36 80H60C66.6274 80 72 74.6274 72 68V42C72 35.3726 66.6274 30 60 30Z" fill="#C77A4A" stroke="#2A1712" stroke-width="3.8" stroke-linecap="round" stroke-linejoin="round"/>
<path id="Vector_3" d="M36 30V23C36 16 41 12 48 12C55 12 60 16 60 23V30" stroke="#2A1712" stroke-width="3.8" stroke-linecap="round" stroke-linejoin="round"/>
<path id="Vector_4" d="M59 52H37C34.2386 52 32 54.2386 32 57V66C32 68.7614 34.2386 71 37 71H59C61.7614 71 64 68.7614 64 66V57C64 54.2386 61.7614 52 59 52Z" fill="#F6DDBD" stroke="#2A1712" stroke-width="2.8" stroke-linecap="round" stroke-linejoin="round"/>
<path id="Vector_5" d="M24 47H72M40 62H56" stroke="#2A1712" stroke-width="3.8" stroke-linecap="round" stroke-linejoin="round"/>
</g>
</svg>
